# xmcd
#
# Track frame offsets:
# 150
# 12807
# 28939
# 39529
# 52231
# 63472
# 78008
# 97754
# 110451
# 120537
# 132985
# 145046
#
# Disc length: 2104 seconds
#
# Revision: 1
# Processed by: cddbd v1.5.1PL0 Copyright (c) Steve Scherf et al.
# Submitted via: CedeCatalogueitor 2.6.0.6 http://personales.ya.com/cdcatalogueitor
#
DISCID=9908360c
DTITLE=Varios - Yesterday - Música Country
DYEAR=2001
DGENRE=Country
TTITLE0=Patsy Cline - Crazy
TTITLE1=Willie Nelson - Always On My Mind
TTITLE2=Jim Reeves - He'll Have To Go
TTITLE3=Lee Dorsey - Working In The Goal Mine
TTITLE4=Don Gibson - Oh Lonesome Me
TTITLE5=Lorne Greene - Ringo
TTITLE6=Marty Robbins - El Paso
TTITLE7=Tammy Wynette - Stand By Your Man
TTITLE8=George Hamilton IV - Abilene
TTITLE9=Waylon Jennings - I'm A Ramblin' Man
TTITLE10=Charlie Rich - The Most Beautiful Girl In The World
TTITLE11=Dolly Parton - Here You Come Again
EXTD=
EXTT0=
EXTT1=
EXTT2=
EXTT3=
EXTT4=
EXTT5=
EXTT6=
EXTT7=
EXTT8=
EXTT9=
EXTT10=
EXTT11=
PLAYORDER=
